<svg xmlns="http://www.w3.org/2000/svg" width="38.396" height="24.118" viewBox="0 0 38.396 24.118">
  <g id="behance" transform="translate(0 -9)">
    <g id="Group_14" data-name="Group 14" transform="translate(0 9)">
      <path id="Path_39" data-name="Path 39" d="M11.169,9a11.842,11.842,0,0,1,3.067.336,6.779,6.779,0,0,1,2.39.938,3.924,3.924,0,0,1,1.538,1.793,6.864,6.864,0,0,1,.518,2.729,4.739,4.739,0,0,1-.854,2.981,6.089,6.089,0,0,1-2.393,1.961,5.631,5.631,0,0,1,3.235,2.213,7.044,7.044,0,0,1,.422,6.818A5.56,5.56,0,0,1,17.216,30.9a8.706,8.706,0,0,1-2.729,1.19,12.789,12.789,0,0,1-3.067.422L0,32.525V9Zm-.684,9.546a3.82,3.82,0,0,0,2.3-.684,2.507,2.507,0,0,0,.852-2.129,3.242,3.242,0,0,0-.252-1.361,2.354,2.354,0,0,0-.768-.852,4.416,4.416,0,0,0-1.106-.422,6.964,6.964,0,0,0-1.361-.084H5.208v5.544c0-.012,5.28-.012,5.28-.012Zm.252,10.062a7.682,7.682,0,0,0,1.454-.168,2.853,2.853,0,0,0,1.19-.518,3.263,3.263,0,0,0,.854-.936,4.111,4.111,0,0,0,.336-1.538A3.283,3.283,0,0,0,13.549,22.8a4.477,4.477,0,0,0-2.729-.768H5.208V28.6h5.532v.012Zm16.458-.084a4.167,4.167,0,0,0,3.067,1.022,4.643,4.643,0,0,0,2.477-.686,3.373,3.373,0,0,0,1.272-1.536h4.176a8.389,8.389,0,0,1-3.067,4.435,9.091,9.091,0,0,1-4.944,1.358,9.923,9.923,0,0,1-3.664-.684,6.784,6.784,0,0,1-2.729-1.877,6.842,6.842,0,0,1-1.709-2.813,10.139,10.139,0,0,1-.6-3.667,9.776,9.776,0,0,1,.6-3.583,9.28,9.28,0,0,1,1.793-2.9,8.6,8.6,0,0,1,2.729-1.877,9.642,9.642,0,0,1,3.583-.684,7.892,7.892,0,0,1,3.835.852,7,7,0,0,1,2.645,2.3A10.413,10.413,0,0,1,38.2,21.424a18.149,18.149,0,0,1,.168,3.751H26a4.9,4.9,0,0,0,1.19,3.35Zm5.376-8.956a3.7,3.7,0,0,0-2.647-.938,4.089,4.089,0,0,0-1.874.422,4.336,4.336,0,0,0-1.19.936,2.3,2.3,0,0,0-.6,1.193,5.7,5.7,0,0,0-.168,1.1h7.67a4.55,4.55,0,0,0-1.193-2.717Zm-7.5-8.946h9.546v2.3H25.066Z" transform="translate(0 -9)" fill="#fff"/>
    </g>
  </g>
</svg>
