<svg id="instagram" xmlns="http://www.w3.org/2000/svg" width="35.969" height="35.969" viewBox="0 0 35.969 35.969">
  <path id="Path_38" data-name="Path 38" d="M23.979,17.985a6,6,0,0,0-5.995-5.995,6,6,0,0,0-5.995,5.995,6,6,0,0,0,5.995,5.995,6,6,0,0,0,5.995-5.995Zm3.232,0a9.195,9.195,0,0,1-9.226,9.226,9.195,9.195,0,0,1-9.226-9.226,9.195,9.195,0,0,1,9.226-9.226,9.195,9.195,0,0,1,9.226,9.226Zm2.529-9.6a2.154,2.154,0,1,1-3.677-1.522A2.154,2.154,0,0,1,29.74,8.383ZM17.985,3.232,16.193,3.22q-1.628-.012-2.471,0t-2.26.07a18.558,18.558,0,0,0-2.412.234,9.389,9.389,0,0,0-1.674.433A6.131,6.131,0,0,0,3.958,7.377a9.389,9.389,0,0,0-.433,1.674,18.558,18.558,0,0,0-.234,2.412q-.059,1.417-.07,2.26t0,2.471q.012,1.628.012,1.791T3.22,19.776q-.012,1.628,0,2.471t.07,2.26a18.558,18.558,0,0,0,.234,2.412,9.389,9.389,0,0,0,.433,1.674,6.131,6.131,0,0,0,3.419,3.419,9.389,9.389,0,0,0,1.674.433,18.557,18.557,0,0,0,2.412.234q1.417.059,2.26.07t2.471,0l1.791-.012,1.791.012q1.628.012,2.471,0t2.26-.07a18.557,18.557,0,0,0,2.412-.234,9.389,9.389,0,0,0,1.674-.433,6.131,6.131,0,0,0,3.419-3.419,9.389,9.389,0,0,0,.433-1.674,18.557,18.557,0,0,0,.234-2.412q.059-1.417.07-2.26t0-2.471q-.012-1.628-.012-1.791t.012-1.791q.012-1.628,0-2.471t-.07-2.26a18.557,18.557,0,0,0-.234-2.412,9.389,9.389,0,0,0-.433-1.674,6.131,6.131,0,0,0-3.419-3.419,9.389,9.389,0,0,0-1.674-.433,18.558,18.558,0,0,0-2.412-.234q-1.417-.059-2.26-.07t-2.471,0ZM35.969,17.985q0,5.363-.117,7.423a10.985,10.985,0,0,1-2.9,7.54,10.985,10.985,0,0,1-7.54,2.9q-2.061.117-7.423.117t-7.423-.117a10.985,10.985,0,0,1-7.54-2.9,10.985,10.985,0,0,1-2.9-7.54Q0,23.347,0,17.985t.117-7.423a10.985,10.985,0,0,1,2.9-7.54,10.985,10.985,0,0,1,7.54-2.9Q12.622,0,17.985,0t7.423.117a10.985,10.985,0,0,1,7.54,2.9,10.985,10.985,0,0,1,2.9,7.54Q35.969,12.622,35.969,17.985Z" fill="#fff"/>
</svg>
