
<svg xmlns="http://www.w3.org/2000/svg" width="182.54" height="41.776" viewBox="0 0 182.54 41.776">
  <g id="Group_10" data-name="Group 10" transform="translate(-1531.51 -436.734)">
    <rect id="Rectangle_4" data-name="Rectangle 4" width="5.843" height="5.843" transform="translate(1603.073 444.478)" fill="#fff"/>
    <path id="Path_28" data-name="Path 28" d="M1665.182,476.154h5.843v11.678h5.835V470.311h-11.678Z" transform="translate(-67.952 -17.069)" fill="#fff"/>
    <path id="Path_29" data-name="Path 29" d="M1712.5,464.276h-11.678V481.8h17.52V458.433H1712.5Zm0,11.686h-5.843v-5.843h5.843Z" transform="translate(-86.068 -11.031)" fill="#fff"/>
    <path id="Path_30" data-name="Path 30" d="M1748.34,487.832h5.835V476.154h5.843v11.678h5.843V470.311H1748.34Z" transform="translate(-110.226 -17.069)" fill="#fff"/>
    <path id="Path_31" data-name="Path 31" d="M1801.711,458.427h-5.851l.008,23.363h11.678v-5.835H1801.7v-5.843h5.843V464.27h-5.835Z" transform="translate(-134.383 -11.028)" fill="#fff"/>
    <rect id="Rectangle_5" data-name="Rectangle 5" width="5.84" height="5.84" transform="translate(1708.21 453.244)" fill="#fff"/>
    <path id="Path_32" data-name="Path 32" d="M1878.836,470.121h-5.843V458.443h-5.843V481.8h5.843v-5.835h5.84V481.8h5.84v-5.84h-5.837Z" transform="translate(-170.623 -11.036)" fill="#fff"/>
    <rect id="Rectangle_6" data-name="Rectangle 6" width="5.843" height="5.843" transform="translate(1684.845 444.478)" fill="#fff"/>
    <path id="Path_33" data-name="Path 33" d="M1831.506,476.154h5.843v11.678h5.835V470.311h-11.678Z" transform="translate(-152.503 -17.069)" fill="#fff"/>
    <path id="Path_34" data-name="Path 34" d="M1551.269,450.007l.026-7.555-9.88-5.718-9.888,5.683-.017,30.358,9.846,5.709,9.888-5.692v-7.546l22.965,13.264,9.88-5.7v-11.4l-6.521-3.777,6.521-3.761v-11.4l-9.88-5.7ZM1539.7,473.639l-4.837-2.787.026-15.076,4.846,2.8Zm.026-18.94-4.846-2.795.008-5.607,4.846,2.8Zm8.162,16.153-4.846,2.787.043-15.043,4.829-2.786Zm.034-18.922-4.846,2.786.008-5.6,4.846-2.8Zm24.623,21.743L1551.3,461.408v-5.6l21.247,12.265Zm8.2-2.8-4.847,2.8v-5.6l4.847-2.8Zm-18.068-17.957,16.384,9.461-4.846,2.795L1552.971,452.9l21.238-12.273,4.846,2.8Z" fill="#fff"/>
  </g>
</svg>
