<svg xmlns="http://www.w3.org/2000/svg" width="176.778" height="140.465" viewBox="0 0 176.778 140.465">
  <g id="Group_129" data-name="Group 129" transform="translate(-978.325 -3459.516)">
    <path id="Path_156" data-name="Path 156" d="M897.006,19,864.228.086,787.081,44.624l.086-25.413L754,0h-.044l-.042.042-32.65,18.695-.044.042-.515.3V51l-.044,70.168,33.082,19.211,33.252-19.124V95.883l77.234,44.583,33.21-19.169V82.961l-.128-.086-21.8-12.621,21.407-12.319.517-.3V19.253ZM748.185,124.1l-16.283-9.39.086-50.7.648.345,6.03,3.489,9.475,5.514.173.086Zm.087-63.707-.087-.043-15.549-8.959L731.946,51l.042-18.866,16.326,9.433Zm11.286-18.737,16.281-9.434V51.086l-.215.129-15.551,8.916v.043l-.56.3Zm16.153,73.054-16.284,9.39.131-50.612.515-.3,15.507-8.917.215-.129-.042,31.745Zm82.918,9.476L787.166,82.961V64.138l71.462,41.222Zm24.94-26.705.56-.345,2.067-1.206V114.75l-16.325,9.433V105.36l.645-.345,12.75-7.365ZM826.5,53.756V53.8l-1.077.6,1.247.733,53.843,31.056-16.281,9.39L792.81,54.359l71.418-41.265,16.281,9.434Z" transform="translate(257.665 3459.516)"/>
    <path id="Path_157" data-name="Path 157" d="M780.957,36.466,780.93,55.32l-16.292,9.37.026-18.819Z" transform="translate(252.558 3455.281)" fill="#0389d0"/>
    <path id="Path_158" data-name="Path 158" d="M749.778,45.8l-.027,18.827-16.3-9.405.034-18.845Z" transform="translate(256.18 3455.292)" fill="#0389d0"/>
    <path id="Path_159" data-name="Path 159" d="M749.771,81.858l-.114,50.631-16.266-9.37.088-50.692Z" transform="translate(256.186 3451.105)" fill="#0389d0"/>
    <path id="Path_160" data-name="Path 160" d="M780.889,72.556l-.088,50.578-16.292,9.37.141-50.578Z" transform="translate(252.573 3451.091)" fill="#0389d0"/>
    <path id="Path_161" data-name="Path 161" d="M905.779,108.548v18.827L889.488,136.8V117.979Z" transform="translate(238.06 3446.911)" fill="#0389d0"/>
    <path id="Path_162" data-name="Path 162" d="M867.356,113.8v18.819L795.915,91.384V72.556Z" transform="translate(248.926 3451.091)" fill="#0389d0"/>
    <path id="Path_163" data-name="Path 163" d="M834.907,56.113l55.087,31.812-16.292,9.4L802.287,56.086,873.7,14.816l16.292,9.423Z" transform="translate(248.186 3457.796)" fill="#0389d0"/>
  </g>
</svg>
