<svg xmlns="http://www.w3.org/2000/svg" width="176.778" height="140.465" viewBox="0 0 176.778 140.465">
  <g id="Group_128" data-name="Group 128" transform="translate(-766 -3459.516)">
    <path id="Path_146" data-name="Path 146" d="M656.786,19,624.008.086,546.861,44.624l.086-25.413L513.781,0h-.044l-.042.042-32.65,18.695L481,18.78l-.515.3V51l-.044,70.168,33.082,19.211,33.252-19.124V95.883l77.234,44.583,33.21-19.169V82.961l-.128-.086-21.8-12.621L656.7,57.934l.517-.3V19.253ZM507.965,124.1l-16.283-9.39.086-50.7.648.345,6.03,3.489,9.475,5.514.173.086Zm.087-63.707-.087-.043-15.549-8.959L491.726,51l.042-18.866,16.326,9.433Zm11.286-18.737,16.281-9.434V51.086l-.215.129-15.551,8.916v.043l-.56.3Zm16.153,73.054-16.284,9.39.131-50.612.515-.3,15.507-8.917.215-.129-.042,31.745Zm82.918,9.476L546.946,82.961V64.138l71.462,41.222Zm24.94-26.705.56-.345,2.067-1.206V114.75l-16.325,9.433V105.36l.645-.345,12.75-7.365ZM586.275,53.756V53.8l-1.077.6,1.247.733,53.843,31.056-16.281,9.39L552.59,54.359l71.418-41.265,16.281,9.434Z" transform="translate(285.56 3459.516)"/>
    <path id="Path_147" data-name="Path 147" d="M540.737,36.466,540.71,55.32l-16.292,9.37.027-18.819Z" transform="translate(280.453 3455.281)" fill="#ffca00"/>
    <path id="Path_148" data-name="Path 148" d="M509.558,45.8l-.027,18.827-16.3-9.405.034-18.845Z" transform="translate(284.075 3455.292)" fill="#ffca00"/>
    <path id="Path_149" data-name="Path 149" d="M509.551,81.858l-.114,50.631-16.266-9.37.087-50.692Z" transform="translate(284.082 3451.105)" fill="#ffca00"/>
    <path id="Path_150" data-name="Path 150" d="M540.669,72.556l-.088,50.578-16.292,9.37.141-50.578Z" transform="translate(280.468 3451.091)" fill="#ffca00"/>
    <path id="Path_151" data-name="Path 151" d="M665.559,108.548v18.827L649.267,136.8V117.979Z" transform="translate(265.955 3446.911)" fill="#ffca00"/>
    <path id="Path_152" data-name="Path 152" d="M627.136,113.8v18.819L555.7,91.384V72.556Z" transform="translate(276.821 3451.091)" fill="#ffca00"/>
    <path id="Path_153" data-name="Path 153" d="M594.687,56.113l55.087,31.812-16.292,9.4L562.067,56.086l71.415-41.27,16.292,9.423Z" transform="translate(276.081 3457.796)" fill="#ffca00"/>
  </g>
</svg>
