<svg xmlns="http://www.w3.org/2000/svg" width="176.778" height="140.465" viewBox="0 0 176.778 140.465">
  <g id="Group_131" data-name="Group 131" transform="translate(-1190.649 -3459.516)">
    <path id="Path_166" data-name="Path 166" d="M1137.226,19,1104.448.086,1027.3,44.624l.086-25.413L994.221,0h-.044l-.042.042-32.65,18.695-.044.042-.515.3V51l-.044,70.168,33.082,19.211,33.252-19.124V95.883l77.234,44.583,33.21-19.169V82.961l-.128-.086-21.8-12.621,21.407-12.319.517-.3V19.253ZM988.4,124.1l-16.283-9.39.086-50.7.648.345,6.03,3.489,9.475,5.514.173.086Zm.087-63.707-.087-.043-15.549-8.959L972.166,51l.042-18.866,16.326,9.433Zm11.286-18.737,16.281-9.434V51.086l-.215.129-15.551,8.916v.043l-.56.3Zm16.153,73.054-16.284,9.39.131-50.612.515-.3,15.507-8.917.215-.129-.042,31.745Zm82.918,9.476-71.462-41.222V64.138l71.462,41.222Zm24.94-26.705.559-.345,2.067-1.206V114.75l-16.325,9.433V105.36l.645-.345,12.75-7.365Zm-57.074-43.721V53.8l-1.077.6,1.247.733,53.843,31.056-16.281,9.39L1033.03,54.359l71.418-41.265,16.281,9.434Z" transform="translate(229.769 3459.516)"/>
    <path id="Path_167" data-name="Path 167" d="M1021.177,36.466l-.027,18.854-16.292,9.37.027-18.819Z" transform="translate(224.662 3455.281)" fill="#f5b3bf"/>
    <path id="Path_168" data-name="Path 168" d="M990,45.8l-.027,18.827-16.3-9.405.035-18.845Z" transform="translate(228.284 3455.292)" fill="#f5b3bf"/>
    <path id="Path_169" data-name="Path 169" d="M989.991,81.858l-.114,50.631-16.266-9.37.088-50.692Z" transform="translate(228.291 3451.105)" fill="#f5b3bf"/>
    <path id="Path_170" data-name="Path 170" d="M1021.109,72.556l-.088,50.578-16.292,9.37.141-50.578Z" transform="translate(224.677 3451.091)" fill="#f5b3bf"/>
    <path id="Path_171" data-name="Path 171" d="M1146,108.548v18.827l-16.292,9.423V117.979Z" transform="translate(210.164 3446.911)" fill="#f5b3bf"/>
    <path id="Path_172" data-name="Path 172" d="M1107.576,113.8v18.819l-71.441-41.235V72.556Z" transform="translate(221.03 3451.091)" fill="#f5b3bf"/>
    <path id="Path_173" data-name="Path 173" d="M1075.127,56.113l55.088,31.812-16.292,9.4-71.415-41.235,71.415-41.27,16.292,9.423Z" transform="translate(220.29 3457.796)" fill="#f5b3bf"/>
  </g>
</svg>
