<svg xmlns="http://www.w3.org/2000/svg" width="176.778" height="140.465" viewBox="0 0 176.778 140.465">
  <g id="Group_133" data-name="Group 133" transform="translate(-1402.974 -3459.516)">
    <path id="Path_176" data-name="Path 176" d="M1377.446,19,1344.667.086l-77.146,44.538.086-25.413L1234.441,0h-.044l-.042.042L1201.7,18.737l-.044.042-.515.3V51l-.044,70.168,33.082,19.211,33.252-19.124V95.883l77.233,44.583,33.211-19.169V82.961l-.128-.086-21.8-12.621,21.407-12.319.517-.3V19.253ZM1228.625,124.1l-16.283-9.39.086-50.7.648.345,6.03,3.489,9.475,5.514.173.086Zm.087-63.707-.087-.043-15.549-8.959-.689-.388.042-18.866,16.326,9.433ZM1240,41.653l16.281-9.434V51.086l-.215.129-15.551,8.916v.043l-.56.3Zm16.153,73.054-16.284,9.39L1240,73.484l.515-.3,15.507-8.917.215-.129-.042,31.745Zm82.918,9.476-71.462-41.222V64.138l71.462,41.222Zm24.94-26.705.56-.345,2.067-1.206V114.75l-16.325,9.433V105.36l.645-.345,12.75-7.365Zm-57.074-43.721V53.8l-1.077.6,1.247.733,53.843,31.056-16.282,9.39L1273.25,54.359l71.417-41.265,16.282,9.434Z" transform="translate(201.874 3459.516)"/>
    <path id="Path_177" data-name="Path 177" d="M1261.4,36.466l-.027,18.854-16.292,9.37.026-18.819Z" transform="translate(196.767 3455.281)" fill="#4dae81"/>
    <path id="Path_178" data-name="Path 178" d="M1230.218,45.8l-.027,18.827-16.3-9.405.035-18.845Z" transform="translate(200.389 3455.292)" fill="#4dae81"/>
    <path id="Path_179" data-name="Path 179" d="M1230.211,81.858l-.114,50.631-16.266-9.37.089-50.692Z" transform="translate(200.396 3451.105)" fill="#4dae81"/>
    <path id="Path_180" data-name="Path 180" d="M1261.329,72.556l-.088,50.578-16.292,9.37.141-50.578Z" transform="translate(196.782 3451.091)" fill="#4dae81"/>
    <path id="Path_181" data-name="Path 181" d="M1386.219,108.548v18.827l-16.292,9.423V117.979Z" transform="translate(182.269 3446.911)" fill="#4dae81"/>
    <path id="Path_182" data-name="Path 182" d="M1347.8,113.8v18.819l-71.441-41.235V72.556Z" transform="translate(193.135 3451.091)" fill="#4dae81"/>
    <path id="Path_183" data-name="Path 183" d="M1315.347,56.113l55.088,31.812-16.292,9.4-71.415-41.235,71.415-41.27,16.292,9.423Z" transform="translate(192.395 3457.796)" fill="#4dae81"/>
  </g>
</svg>
