<svg xmlns="http://www.w3.org/2000/svg" width="176.778" height="140.465" viewBox="0 0 176.778 140.465">
  <g id="Group_141" data-name="Group 141" transform="translate(-535 -3429)">
    <path id="Path_136" data-name="Path 136" d="M416.566,19,383.788.086,306.641,44.624l.086-25.413L273.561,0h-.044l-.042.042-32.65,18.695-.044.042-.515.3V51l-.044,70.168L273.3,140.379l33.252-19.124V95.883l77.234,44.583L417,121.3V82.961l-.128-.086-21.8-12.621,21.407-12.319.517-.3V19.253ZM267.745,124.1l-16.283-9.39.086-50.7.648.345,6.03,3.489,9.475,5.514.173.086Zm.087-63.707-.087-.043L252.2,51.388,251.506,51l.042-18.866,16.326,9.433Zm11.286-18.737L295.4,32.219V51.086l-.215.129-15.551,8.916v.043l-.559.3Zm16.153,73.054-16.284,9.39.131-50.612.515-.3,15.507-8.917.215-.129-.042,31.745Zm82.918,9.476L306.726,82.961V64.138l71.462,41.222Zm24.94-26.705.56-.345,2.067-1.206V114.75l-16.325,9.433V105.36l.645-.345,12.75-7.365ZM346.055,53.756V53.8l-1.077.6,1.247.733,53.843,31.056-16.281,9.39L312.37,54.359l71.418-41.265,16.281,9.434Z" transform="translate(294.78 3429)"/>
    <path id="Path_137" data-name="Path 137" d="M300.517,36.466,300.49,55.32,284.2,64.69l.026-18.819Z" transform="translate(289.673 3424.765)" fill="#ea5125"/>
    <path id="Path_138" data-name="Path 138" d="M269.338,45.8l-.027,18.827-16.3-9.405.034-18.845Z" transform="translate(293.295 3424.776)" fill="#ea5125"/>
    <path id="Path_139" data-name="Path 139" d="M269.331,81.858l-.114,50.631-16.266-9.37.087-50.692Z" transform="translate(293.302 3420.589)" fill="#ea5125"/>
    <path id="Path_140" data-name="Path 140" d="M300.449,72.556l-.088,50.578-16.292,9.37.141-50.578Z" transform="translate(289.688 3420.574)" fill="#ea5125"/>
    <path id="Path_141" data-name="Path 141" d="M425.339,108.548v18.827L409.047,136.8V117.979Z" transform="translate(275.175 3416.395)" fill="#ea5125"/>
    <path id="Path_142" data-name="Path 142" d="M386.916,113.8v18.819L315.475,91.384V72.556Z" transform="translate(286.041 3420.574)" fill="#ea5125"/>
    <path id="Path_143" data-name="Path 143" d="M354.467,56.113l55.088,31.812-16.292,9.4L321.847,56.086l71.415-41.27,16.292,9.423Z" transform="translate(285.301 3427.28)" fill="#ea5125"/>
  </g>
</svg>
